<svg width="89" height="44" viewBox="0 0 89 44" fill="none" xmlns="http://www.w3.org/2000/svg">
<path fill-rule="evenodd" clip-rule="evenodd" d="M0.823013 1.34269C0.802725 0.880777 0.978913 0.506281 1.60171 0.506281C2.22451 0.506281 8.54273 0.704357 12.7915 0.704357C21.601 0.704357 23.7142 0 25.227 0C26.0724 0.0219204 26.2505 0.660252 26.2505 1.03448C26.2505 1.40871 25.85 2.20102 25.85 3.23524C25.85 4.26972 26.0946 5.37023 26.0946 6.2724C26.0946 7.17483 25.3161 7.48277 24.8935 7.48277C24.4707 7.48277 24.2048 7.32854 24.1813 6.55842C24.137 5.08394 25.227 2.94922 14.5267 2.94922C9.07637 2.94922 8.94289 3.56563 8.94289 5.28202C8.94289 6.99868 8.98748 12.6768 8.98748 13.5571C8.98748 14.4376 9.25443 14.7017 9.96639 14.7017C10.6781 14.7017 16.2619 14.7017 17.7747 14.7017C19.2876 14.7017 20.8223 13.8875 21.0003 11.7747C21.0671 10.6522 21.3783 10.6081 21.9347 10.6081C22.4907 10.6081 23.0025 11.0484 22.9136 12.1045C22.8244 13.1612 22.602 14.2836 22.602 15.802C22.602 17.3208 22.9136 18.8175 22.9136 19.9174C22.9136 21.0182 21.4451 21.282 21.1562 20.0939C20.8668 18.9054 20.444 16.9025 17.0182 16.9025C13.5924 16.9025 10.834 16.9025 10.0774 16.9025C9.32117 16.9025 8.94289 17.3208 8.94289 18.5531C8.94289 19.7857 8.94289 25.8159 8.94289 27.3347C8.94289 28.853 9.41006 30.4817 12.5246 30.4817C15.6389 30.4817 21.2894 30.8119 23.8701 28.8089C24.9822 27.9065 25.3161 26.6523 25.6941 24.6055C25.8722 23.6592 27.9411 23.6811 27.8522 25.86C27.7852 26.8725 26.8047 29.0464 26.8047 30.4413C26.8047 31.6081 27.0743 33.1692 25.9835 33.1692C25.0617 33.1692 25.4493 32.7044 21.4007 32.7044C17.3519 32.7044 3.38148 32.7926 1.04565 32.7926C0.178057 32.7926 0 32.5504 0 32.0222C0 31.4943 0.311533 31.0979 1.04565 31.0979C1.77977 31.0979 4.89403 31.1417 4.89403 27.2246C4.89403 23.3069 4.89403 8.97943 4.89403 6.86662C4.89403 4.75382 4.42687 2.64127 1.80193 2.37691C0.778699 2.28896 0.845437 1.84871 0.823013 1.34269Z" fill="#929DC5"/>
<path fill-rule="evenodd" clip-rule="evenodd" d="M29.2137 13.5514C29.2137 12.8965 29.5638 12.6198 30.3511 12.3577C31.8383 11.7901 33.5441 10.1302 34.9872 6.19936C35.4464 4.95459 37.021 5.28216 36.8242 6.54869C36.6276 7.81547 36.3431 10.152 36.3431 11.4843C37.021 11.4843 42.051 11.4843 42.6852 11.4843C43.3195 11.4843 43.4287 12.2487 43.4287 12.8601C43.4287 13.4714 43.2537 13.9738 42.7073 13.9738C42.1166 13.9738 36.3431 13.9738 36.3431 13.9738C36.3431 13.9738 36.3431 20.9836 36.3431 24.9362C36.3431 28.889 37.6991 29.8062 39.5143 29.8062C40.564 29.8062 41.4167 29.3911 42.2042 28.8455C42.7291 28.4522 43.91 29.3911 43.3195 30.1556C42.7291 30.92 40.6514 33.1692 37.6773 33.1692C34.703 33.1692 32.56 30.9637 32.6038 27.2732C32.6474 23.5824 32.8004 17.4241 32.8004 16.5724C32.8004 15.7207 31.6853 14.5197 30.4385 14.5197C29.4108 14.4979 29.2137 13.9591 29.2137 13.5514Z" fill="#929DC5"/>
<path fill-rule="evenodd" clip-rule="evenodd" d="M55.221 10.9648C57.3174 10.9648 58.9457 11.7022 59.637 11.7022C60.3283 11.7022 60.596 10.8307 61.3542 10.8307C62.1127 10.8307 62.2909 11.7022 62.0904 12.4396C61.8894 13.177 61.7559 14.9199 61.8448 16.8639C61.8672 17.5343 61.332 17.9365 60.7967 17.9365C60.2614 17.9365 60.0607 17.7131 59.8375 16.6851C59.6148 15.6573 58.7003 13.177 55.0871 13.177C52.4774 13.177 51.474 14.9199 51.474 16.0595C51.474 17.1991 52.0845 18.2886 54.8639 19.5006C57.7857 20.7742 63.1832 22.1375 63.1832 27.3214C63.0047 32.1928 58.1872 33.7346 55.3548 33.7346C52.9683 33.7346 50.738 33.0195 49.7566 33.0195C48.7752 33.0195 48.3962 33.8461 47.7715 33.8461C47.1471 33.8461 46.701 33.1313 46.9464 32.3936C47.1915 31.6562 47.5039 31.0977 47.5039 30.3603C47.5039 29.6229 47.0802 27.9022 47.3254 26.4722C47.5711 25.0422 49.489 24.8411 49.4667 26.2266C49.4445 27.6121 50.0689 31.5669 55.0649 31.5669C59.1017 31.5669 59.5701 28.7514 59.5701 27.947C59.5701 26.9637 59.3691 25.556 54.5294 23.6345C49.6897 21.7127 47.8162 19.925 47.8162 16.8639C47.8162 13.8028 50.5373 10.9648 55.221 10.9648Z" fill="#929DC5"/>
<path fill-rule="evenodd" clip-rule="evenodd" d="M64.542 12.2376C64.542 11.7731 64.5638 11.552 65.0893 11.552C65.6149 11.552 68.396 11.6404 69.8627 11.6404C71.33 11.6404 74.0236 11.552 74.5707 11.552C74.9651 11.552 74.8556 12.0385 74.8556 12.3706C74.8556 12.7021 74.8992 13.2552 74.1986 13.2552C73.4978 13.2552 72.1843 13.4983 72.1843 14.6707C72.1843 15.8428 72.4933 16.1695 72.9505 17.4356C73.4542 18.8291 77.0891 27.2559 77.0891 27.2559C77.0891 27.2559 79.9356 21.3503 80.7896 19.6917C81.6436 18.0328 82.1691 15.9535 82.1691 15.0245C82.1691 14.0955 81.2276 13.4763 80.4391 13.3216C79.6508 13.1666 79.2569 13.2109 79.2569 12.2599C79.2569 11.7731 79.3444 11.5077 79.7385 11.5077C80.1327 11.5077 82.4976 11.6624 84.2492 11.6624C86.0013 11.6624 88.0375 11.552 88.6069 11.552C89.1324 11.552 88.9792 11.9945 88.9792 12.3706C88.9792 12.7464 88.9353 13.1222 88.4755 13.1889C88.0157 13.2552 85.9795 13.1666 83.8553 17.7231C81.7314 22.2793 77.5268 31.4586 74.4835 37.4306C72.9066 40.5713 69.9287 43.9997 66.8194 43.9997C65.1989 44.0218 64.5638 42.6063 64.5638 41.8984C64.5638 41.1905 64.958 40.0405 66.7973 40.0405C68.0234 40.0405 68.3521 40.6377 68.9431 40.6377C70.1694 40.6377 73.279 37.6294 74.1548 32.2328C74.2861 30.9941 73.0254 27.9603 72.5345 26.5924C71.8046 24.5576 69.5858 18.6595 67.9798 15.1575C67.4316 13.9607 65.9872 13.3436 65.0675 13.2329C64.6295 13.1445 64.542 12.9898 64.542 12.2376Z" fill="#929DC5"/>
</svg>
