<svg width="59" height="20" viewBox="0 0 59 50" fill="none" xmlns="http://www.w3.org/2000/svg">
<path fill-rule="evenodd" clip-rule="evenodd" d="M39.6841 0.0697911C39.3836 -0.0767386 39.1376 0.0714494 39.1376 0.399483V40.7232L57.2363 49.5516C58.1381 49.9916 58.8761 49.5466 58.8761 48.563V9.74708C58.8761 9.55367 58.7641 9.37684 58.5867 9.29031L39.6841 0.0697911Z" fill="#97A3D1"/>
<path fill-rule="evenodd" clip-rule="evenodd" d="M19.4014 31.1079L38.8196 0.323805C38.9957 0.0446151 39.3857 -0.0639254 39.6864 0.0827551L58.4436 9.23242C58.6772 9.34624 58.7603 9.63116 58.6236 9.84809L39.1397 40.7362L19.4014 31.1079Z" fill="#929DC5"/>
<path fill-rule="evenodd" clip-rule="evenodd" d="M2.61885 0.93552C1.42033 0.352607 1.0143 0.783912 1.71669 1.89386L20.1151 30.9723L39.7907 40.5405L20.2424 9.64491C20.1592 9.51353 20.04 9.40732 19.8981 9.33825L2.61885 0.93552Z" fill="#97A3D1"/>
<path fill-rule="evenodd" clip-rule="evenodd" d="M19.8953 48.8456C19.8953 49.8258 19.1516 50.2691 18.2427 49.8308L1.10179 41.5647C0.49576 41.2725 0 40.4988 0 39.8453V1.44526C0 0.791794 0.49576 0.496158 1.10179 0.788489L19.65 9.73327C19.8003 9.80568 19.8953 9.95395 19.8953 10.116V48.8456Z" fill="#929DC5"/>
</svg>
