<svg width="139" height="31" viewBox="0 0 139 31" fill="none" xmlns="http://www.w3.org/2000/svg">
<path fill-rule="evenodd" clip-rule="evenodd" d="M66.6075 24.1186C66.6075 25.0461 67.3767 25.805 68.3165 25.805C69.2565 25.805 70.0254 25.0461 70.0254 24.1186C70.0254 20.729 70.0254 17.3497 70.0254 13.9163C70.0254 12.9886 69.2565 12.2297 68.3165 12.2297C67.3767 12.2297 66.6075 12.9886 66.6075 13.9163C66.6075 17.4578 66.6075 20.4366 66.6075 24.1186ZM68.3165 9.07786C71.2596 9.07786 73.6674 11.4542 73.6674 14.3587C73.6674 17.7412 73.6674 20.5832 73.6674 23.6423C73.6674 26.5469 71.2596 28.9232 68.3165 28.9232C65.3736 28.9232 62.9655 26.5469 62.9655 23.6423V14.3587C62.9655 11.4542 65.3736 9.07786 68.3165 9.07786ZM54.3011 28.9232H58.3339V18.3917L63.1302 2.69565H59.0974L56.3139 12.5587L53.5306 2.69565H49.4976L54.3011 18.4153V28.9232ZM83.2133 28.9232H86.7902V9.29918H83.2133V24.257C80.6392 27.2164 79.9909 25.005 79.9909 23.8939V9.29918H76.4136V24.5905C76.4136 27.0871 77.0459 28.678 78.6539 28.9306C79.726 29.0987 81.2733 28.9319 83.2133 26.5919V28.9232Z" fill="#929DC5"/>
<path fill-rule="evenodd" clip-rule="evenodd" d="M118.274 24.8897V13.1706C118.743 12.6447 119.372 12.1917 120.128 12.24C121.859 12.3509 121.686 14.4543 121.686 14.4543C121.686 14.4543 121.657 22.232 121.657 23.7264C121.657 25.2212 121.051 25.7471 120.042 25.7747C119.179 25.7983 118.464 25.0954 118.274 24.8897ZM114.59 28.9514H118.274V26.8634C118.974 27.6918 120.127 29.1974 122.349 28.9514C126.069 28.5399 125.391 23.8095 125.391 23.8095C125.391 23.8095 125.391 17.0561 125.391 13.7347C125.391 10.4133 124.167 9.08473 122.003 9.08473C120.234 9.08473 118.755 10.5829 118.274 11.1298V2.69565H114.59V28.9514Z" fill="#929DC5"/>
<path fill-rule="evenodd" clip-rule="evenodd" d="M107.694 28.9236H111.2V9.43478H107.694V24.2895C105.171 27.2286 104.535 25.0324 104.535 23.9289V9.43478H101.029V24.6207C101.029 27.1001 101.649 28.6801 103.225 28.9309C104.276 29.0978 105.792 28.9323 107.694 26.6084V28.9236Z" fill="#929DC5"/>
<path fill-rule="evenodd" clip-rule="evenodd" d="M92.507 28.9783H96.6686V6.44674H101.029V2.69565H88.1464V6.44674H92.507V28.9783Z" fill="#929DC5"/>
<path fill-rule="evenodd" clip-rule="evenodd" d="M135.308 17.1807V14.364C135.308 13.4189 134.529 12.6457 133.576 12.6457C132.623 12.6457 131.843 13.4189 131.843 14.364V17.1807H135.308ZM133.576 9.43478C136.559 9.43478 139 11.8556 139 14.8147V20.2226H131.843V24.7576C131.843 25.7024 132.623 26.4755 133.576 26.4755C134.529 26.4755 135.308 25.7024 135.308 24.7576V22.5325H139V24.2723C139 27.2313 136.559 29.6522 133.576 29.6522C130.592 29.6522 128.151 27.2313 128.151 24.2723V14.8147C128.151 11.8556 130.592 9.43478 133.576 9.43478Z" fill="#929DC5"/>
<path fill-rule="evenodd" clip-rule="evenodd" d="M18.5417 22.3585V9.053L30.1742 15.4999L18.5417 22.3585ZM46.0957 13.8679C46.0258 8.81907 45.5514 3.74464 43.426 1.87004C42.6054 1.14637 41.8257 0.69249 38.7075 0.410298C34.8056 0.0574273 29.5214 0.00784597 25.5265 0.00178018C23.878 -0.000593393 22.2289 -0.000593393 20.5804 0.00178018C16.5858 0.0081097 11.3013 0.0574273 7.39937 0.410298C4.28148 0.69249 3.50154 1.14637 2.6812 1.87004C0.518928 3.77708 0.0653832 8.99498 0.00763961 14.129C-0.00293317 15.0858 -0.00266207 16.0445 0.00926619 17.0013C0.073245 22.0931 0.537363 27.239 2.6812 29.13C3.50154 29.8537 4.28148 30.3075 7.39937 30.5895C11.3013 30.9423 16.5858 30.9919 20.5804 30.998C22.2289 31.0006 23.878 31.0006 25.5265 30.9983C29.5214 30.9919 34.8056 30.9423 38.7075 30.5895C41.8257 30.3075 42.6054 29.8537 43.426 29.13C45.5514 27.2554 46.0258 22.181 46.0957 17.1318C46.1112 16.045 46.1112 14.955 46.0957 13.8679Z" fill="#929DC5"/>
</svg>
